<svg xmlns="http://www.w3.org/2000/svg" viewBox="0 0 200 60" width="200" height="60">
    <defs>
        <linearGradient id="g" x1="0%" y1="0%" x2="100%" y2="100%">
            <stop offset="0%" stop-color="#4f46e5" />
            <stop offset="100%" stop-color="#db2777" />
        </linearGradient>
    </defs>
    <!-- Stylized Paw Print -->
    <path d="M 40,35 C 40,43 33,50 25,50 C 17,50 10,43 10,35 C 10,27 17,20 25,20 C 33,20 40,27 40,35 Z M 15,22 C 12,22 10,19 10,16 C 10,13 12,10 15,10 C 18,10 20,13 20,16 C 20,19 18,22 15,22 Z M 25,18 C 22,18 20,15 20,12 C 20,9 22,6 25,6 C 28,6 30,9 30,12 C 30,15 28,18 25,18 Z M 35,22 C 32,22 30,19 30,16 C 30,13 32,10 35,10 C 38,10 40,13 40,16 C 40,19 38,22 35,22 Z" fill="url(#g)" />
    <!-- Text -->
    <text x="50" y="38" font-family="'Outfit', sans-serif" font-weight="900" font-size="28" fill="#1f2937">
        Pet<tspan fill="#4f46e5">Nabor</tspan>
    </text>
</svg>
